
<svg viewBox="0 0 51 51" xmlns="http://www.w3.org/2000/svg">
  <circle cx="25.5" cy="25.5" r="22.5" fill="#F01E28" stroke="white" stroke-width="5" transform="matrix(1, 0, 0, 1, 3.552713678800501e-15, 7.105427357601002e-15)"/>
  <path d="M 15.857 25.928 C 15.857 25.265 16.12 24.629 16.589 24.16 C 17.058 23.692 17.694 23.428 18.357 23.428 C 19.02 23.428 19.656 23.692 20.125 24.16 C 20.593 24.629 20.857 25.265 20.857 25.928 C 20.857 26.591 20.593 27.227 20.125 27.696 C 19.656 28.165 19.02 28.428 18.357 28.428 C 17.694 28.428 17.058 28.165 16.589 27.696 C 16.12 27.227 15.857 26.591 15.857 25.928 Z M 23 25.928 C 23 25.265 23.263 24.629 23.732 24.16 C 24.201 23.692 24.837 23.428 25.5 23.428 C 26.163 23.428 26.799 23.692 27.267 24.16 C 27.736 24.629 28 25.265 28 25.928 C 28 26.591 27.736 27.227 27.267 27.696 C 26.799 28.165 26.163 28.428 25.5 28.428 C 24.837 28.428 24.201 28.165 23.732 27.696 C 23.263 27.227 23 26.591 23 25.928 Z M 32.643 23.428 C 33.306 23.428 33.941 23.692 34.41 24.16 C 34.879 24.629 35.143 25.265 35.143 25.928 C 35.143 26.591 34.879 27.227 34.41 27.696 C 33.941 28.165 33.306 28.428 32.643 28.428 C 31.979 28.428 31.344 28.165 30.875 27.696 C 30.406 27.227 30.143 26.591 30.143 25.928 C 30.143 25.265 30.406 24.629 30.875 24.16 C 31.344 23.692 31.979 23.428 32.643 23.428 Z" fill="white" transform="matrix(1, 0, 0, 1, 3.552713678800501e-15, 7.105427357601002e-15)"/>
  <path d="M 15.857 17.928 C 15.857 17.265 16.12 16.629 16.589 16.16 C 17.058 15.692 17.694 15.428 18.357 15.428 C 19.02 15.428 19.656 15.692 20.125 16.16 C 20.593 16.629 20.857 17.265 20.857 17.928 C 20.857 18.591 20.593 19.227 20.125 19.696 C 19.656 20.165 19.02 20.428 18.357 20.428 C 17.694 20.428 17.058 20.165 16.589 19.696 C 16.12 19.227 15.857 18.591 15.857 17.928 Z M 23 17.928 C 23 17.265 23.263 16.629 23.732 16.16 C 24.201 15.692 24.837 15.428 25.5 15.428 C 26.163 15.428 26.799 15.692 27.267 16.16 C 27.736 16.629 28 17.265 28 17.928 C 28 18.591 27.736 19.227 27.267 19.696 C 26.799 20.165 26.163 20.428 25.5 20.428 C 24.837 20.428 24.201 20.165 23.732 19.696 C 23.263 19.227 23 18.591 23 17.928 Z M 32.643 15.428 C 33.306 15.428 33.941 15.692 34.41 16.16 C 34.879 16.629 35.143 17.265 35.143 17.928 C 35.143 18.591 34.879 19.227 34.41 19.696 C 33.941 20.165 33.306 20.428 32.643 20.428 C 31.979 20.428 31.344 20.165 30.875 19.696 C 30.406 19.227 30.143 18.591 30.143 17.928 C 30.143 17.265 30.406 16.629 30.875 16.16 C 31.344 15.692 31.979 15.428 32.643 15.428 Z" fill="white" transform="matrix(1, 0, 0, 1, 3.552713678800501e-15, 7.105427357601002e-15)"/>
  <path d="M 15.857 33.928 C 15.857 33.265 16.12 32.629 16.589 32.16 C 17.058 31.692 17.694 31.428 18.357 31.428 C 19.02 31.428 19.656 31.692 20.125 32.16 C 20.593 32.629 20.857 33.265 20.857 33.928 C 20.857 34.591 20.593 35.227 20.125 35.696 C 19.656 36.165 19.02 36.428 18.357 36.428 C 17.694 36.428 17.058 36.165 16.589 35.696 C 16.12 35.227 15.857 34.591 15.857 33.928 Z M 23 33.928 C 23 33.265 23.263 32.629 23.732 32.16 C 24.201 31.692 24.837 31.428 25.5 31.428 C 26.163 31.428 26.799 31.692 27.267 32.16 C 27.736 32.629 28 33.265 28 33.928 C 28 34.591 27.736 35.227 27.267 35.696 C 26.799 36.165 26.163 36.428 25.5 36.428 C 24.837 36.428 24.201 36.165 23.732 35.696 C 23.263 35.227 23 34.591 23 33.928 Z M 32.643 31.428 C 33.306 31.428 33.941 31.692 34.41 32.16 C 34.879 32.629 35.143 33.265 35.143 33.928 C 35.143 34.591 34.879 35.227 34.41 35.696 C 33.941 36.165 33.306 36.428 32.643 36.428 C 31.979 36.428 31.344 36.165 30.875 35.696 C 30.406 35.227 30.143 34.591 30.143 33.928 C 30.143 33.265 30.406 32.629 30.875 32.16 C 31.344 31.692 31.979 31.428 32.643 31.428 Z" fill="white" transform="matrix(1, 0, 0, 1, 3.552713678800501e-15, 7.105427357601002e-15)"/>
</svg>