<svg width="26" height="20" viewBox="0 0 26 20" fill="none" xmlns="http://www.w3.org/2000/svg">
<path d="M0 5.6006V4.80069C0 4.13801 0.537193 3.60081 1.19987 3.60081H19.198V1.20107C19.198 0.132833 20.4928 -0.400861 21.2463 0.352609L25.2459 4.35219C25.7144 4.82079 25.7144 5.5805 25.2459 6.04906L21.2463 10.0486C20.4956 10.7992 19.198 10.2729 19.198 9.20022V6.80048H1.19987C0.537193 6.80048 0 6.26328 0 5.6006ZM24.3974 13.1998H6.39932V10.8001C6.39932 9.73446 5.10636 9.19622 4.35099 9.95159L0.351413 13.9512C-0.117138 14.4198 -0.117138 15.1795 0.351413 15.648L4.35099 19.6476C5.10231 20.3989 6.39932 19.8709 6.39932 18.7992V16.3995H24.3974C25.0601 16.3995 25.5973 15.8623 25.5973 15.1996V14.3997C25.5973 13.737 25.0601 13.1998 24.3974 13.1998Z" fill="black"/>
</svg>
